# xmcd
#
# Track frame offsets:
#	150
#	22707
#	42827
#	57739
#	79873
#	92083
#	119137
#	137097
#	156361
#
# Disc length: 2344 seconds
#
# Revision: 0
# Processed by: cddbd v1.4PL0 Copyright (c) Steve Scherf et al.
# Submitted via: EasyCDDAExtractor 5.0.4.1
#
DISCID=77092609
DTITLE=John Mayall - The Adventures Of
DYEAR=1998
DGENRE=Blues
TTITLE0=Baby What You Want To Do
TTITLE1=Road Show
TTITLE2=Why Worry
TTITLE3=A Big Man
TTITLE4=Lost And Gone
TTITLE5=Mexico City
TTITLE6=Mama Talk To Your Daughter
TTITLE7=John Lee Boogie
TTITLE8=Reaching For A Mountain
EXTD=
EXTT0=
EXTT1=
EXTT2=
EXTT3=
EXTT4=
EXTT5=
EXTT6=
EXTT7=
EXTT8=
PLAYORDER=
